<svg width="26" height="26" viewBox="0 0 26 26" fill="none" xmlns="http://www.w3.org/2000/svg">
<g filter="url(#filter0_d_26_1766)">
<path d="M15.3781 17.9996H10.4131C5.9198 17.9996 4 16.0798 4 11.5865V6.62142C4 2.12807 5.9198 0.208252 10.4131 0.208252H12.0681C12.4074 0.208252 12.6888 0.489604 12.6888 0.828881C12.6888 1.16816 12.4074 1.44951 12.0681 1.44951H10.4131C6.59835 1.44951 5.24125 2.80662 5.24125 6.62142V11.5865C5.24125 15.4013 6.59835 16.7584 10.4131 16.7584H15.3781C19.1929 16.7584 20.55 15.4013 20.55 11.5865V9.93144C20.55 9.59217 20.8314 9.31081 21.1706 9.31081C21.5099 9.31081 21.7913 9.59217 21.7913 9.93144V11.5865C21.7913 16.0798 19.8715 17.9996 15.3781 17.9996Z" fill="#21A9FF"/>
<path d="M9.99851 13.8131C9.49374 13.8131 9.03034 13.6311 8.69106 13.3001C8.28559 12.8946 8.11181 12.3071 8.20284 11.6864L8.55866 9.19566C8.62486 8.7157 8.93931 8.09507 9.27859 7.7558L15.7993 1.23505C17.446 -0.411684 19.1176 -0.411684 20.7643 1.23505C21.6663 2.13703 22.0717 3.05556 21.989 3.9741C21.9145 4.71885 21.5173 5.44706 20.7643 6.19181L14.2436 12.7126C13.9043 13.0518 13.2837 13.3663 12.8037 13.4325L10.313 13.7883C10.2054 13.8131 10.0978 13.8131 9.99851 13.8131ZM16.6764 2.11221L10.1557 8.63295C9.99851 8.79018 9.81646 9.15428 9.78336 9.36943L9.42754 11.8602C9.39444 12.1002 9.44409 12.2988 9.56821 12.4229C9.69234 12.5471 9.89094 12.5967 10.1309 12.5636L12.6217 12.2078C12.8368 12.1747 13.2092 11.9926 13.3582 11.8354L19.8789 5.31466C20.4167 4.77678 20.6981 4.29682 20.7395 3.84997C20.7891 3.31209 20.5078 2.74111 19.8789 2.10393C18.5549 0.779924 17.6446 1.1523 16.6764 2.11221Z" fill="#21A9FF"/>
<path d="M19.3909 7.3087C19.333 7.3087 19.2751 7.30042 19.2254 7.28387C17.0491 6.67152 15.3196 4.94203 14.7073 2.76569C14.6163 2.43469 14.8066 2.09541 15.1376 1.99611C15.4686 1.90508 15.8079 2.09541 15.8989 2.42641C16.3954 4.189 17.7939 5.58749 19.5564 6.08399C19.8874 6.17501 20.0778 6.52257 19.9867 6.85357C19.9123 7.13492 19.664 7.3087 19.3909 7.3087Z" fill="#21A9FF"/>
</g>
<defs>
<filter id="filter0_d_26_1766" x="0" y="0" width="25.9995" height="25.9995" filterUnits="userSpaceOnUse" color-interpolation-filters="sRGB">
<feFlood flood-opacity="0" result="BackgroundImageFix"/>
<feColorMatrix in="SourceAlpha" type="matrix" values="0 0 0 0 0 0 0 0 0 0 0 0 0 0 0 0 0 0 127 0" result="hardAlpha"/>
<feOffset dy="4"/>
<feGaussianBlur stdDeviation="2"/>
<feComposite in2="hardAlpha" operator="out"/>
<feColorMatrix type="matrix" values="0 0 0 0 0 0 0 0 0 0 0 0 0 0 0 0 0 0 0.25 0"/>
<feBlend mode="normal" in2="BackgroundImageFix" result="effect1_dropShadow_26_1766"/>
<feBlend mode="normal" in="SourceGraphic" in2="effect1_dropShadow_26_1766" result="shape"/>
</filter>
</defs>
</svg>
