<svg width="16" height="20" viewBox="0 0 16 20" fill="none" xmlns="http://www.w3.org/2000/svg">
<path d="M2.52029 0C6.14797 0 9.77566 0 13.4415 0C13.4797 0 13.4797 0.0393701 13.5179 0.0393701C14.969 0.275591 15.9618 1.45669 15.9618 2.99213C15.9618 7.67717 15.9618 12.3228 15.9618 17.0079C15.9618 18.7008 14.7017 20 13.0597 20C9.6611 20 6.26253 20 2.86396 20C2.55847 20 2.2148 19.9606 1.90931 19.8425C0.725537 19.4094 0 18.3071 0 17.0079C0 13.1496 0 9.29134 0 5.47244C0 4.64567 0 3.8189 0 3.0315C0 1.69291 0.572792 0.787402 1.68019 0.275591C1.90931 0.11811 2.2148 0.0787402 2.52029 0ZM7.94272 14.4094C9.20286 14.4094 10.5012 14.4094 11.7613 14.4094C11.8377 14.4094 11.9523 14.4094 12.0286 14.4094C12.3341 14.3701 12.6014 14.1339 12.6396 13.8189C12.6778 13.5039 12.4869 13.2283 12.2196 13.1102C12.105 13.0709 12.0286 13.0709 11.9141 13.0709C9.24105 13.0709 6.6062 13.0709 3.93317 13.0709C3.8568 13.0709 3.78043 13.0709 3.70406 13.1102C3.47494 13.189 3.3222 13.3465 3.24582 13.5827C3.13126 14.0157 3.43675 14.4488 3.89499 14.4488C5.26969 14.4094 6.6062 14.4094 7.94272 14.4094ZM7.94272 10.6693C9.24105 10.6693 10.5394 10.6693 11.8377 10.6693C11.9141 10.6693 12.0286 10.6693 12.105 10.6693C12.4487 10.6299 12.716 10.2756 12.6396 9.88189C12.5632 9.52756 12.2959 9.33071 11.8759 9.33071C9.24105 9.33071 6.6062 9.33071 3.97136 9.33071C3.89499 9.33071 3.81862 9.33071 3.74224 9.33071C3.39857 9.37008 3.13126 9.76378 3.20764 10.1181C3.28401 10.4724 3.51313 10.6693 3.93317 10.6693C5.30788 10.6693 6.64439 10.6693 7.94272 10.6693ZM7.98091 5.59055C7.21718 5.59055 6.45346 5.59055 5.72792 5.59055C5.65155 5.59055 5.57518 5.59055 5.49881 5.59055C5.19332 5.66929 4.9642 5.94488 4.9642 6.25984C4.9642 6.5748 5.19332 6.85039 5.49881 6.88976C5.57518 6.88976 5.68974 6.92913 5.76611 6.92913C7.25537 6.92913 8.70644 6.92913 10.1957 6.92913C10.3103 6.92913 10.463 6.92913 10.5776 6.88976C10.8831 6.77165 11.0358 6.45669 10.9976 6.14173C10.9212 5.7874 10.6921 5.59055 10.3484 5.59055C9.54654 5.59055 8.74463 5.59055 7.98091 5.59055Z" fill="#21A9FF"/>
</svg>
