<svg width="24" height="24" viewBox="0 0 24 24" fill="none" xmlns="http://www.w3.org/2000/svg">
<path d="M0 11.1687C0.0644536 10.7806 0.0644566 10.3924 0.12891 10.0042C0.386725 8.19276 1.03126 6.51069 1.99806 5.0227C3.28713 3.14655 4.96293 1.72326 7.02545 0.75283C7.66998 0.49405 8.31452 0.23527 8.95906 0.0411848C9.28132 -0.0882052 9.66805 0.10588 9.86141 0.36466C10.0548 0.62344 10.0548 1.01161 9.86141 1.27039C9.28132 1.98204 8.83015 2.75838 8.50788 3.66411C7.86335 5.15209 7.66998 6.76947 7.99225 8.38684C8.44343 10.91 9.7325 12.9155 11.795 14.4035C12.9552 15.2445 14.3087 15.6974 15.7267 15.8915C18.1759 16.2149 20.3674 15.568 22.3654 14.08C22.4943 13.9506 22.6232 13.8859 22.8166 13.7565C23.1389 13.5624 23.4611 13.5624 23.7189 13.8212C23.9768 14.0153 24.0412 14.3388 23.9768 14.6623C23.0099 18.2852 20.9474 21.0024 17.5958 22.6844C15.7267 23.6549 13.7286 24.1077 11.6017 23.9783C6.44536 23.5902 2.83596 20.9377 0.837899 16.1502C0.386724 15.0504 0.128906 13.9506 0.0644526 12.7861C0.0644526 12.7214 0.0644536 12.6567 0 12.5273C0 12.0098 0 11.6216 0 11.1687Z" fill="#1D9BFF"/>
</svg>
