<svg width="21" height="12" viewBox="0 0 21 12" fill="none" xmlns="http://www.w3.org/2000/svg">
<path d="M1.5 12C0.671573 12 0 11.3284 0 10.5C0 9.67157 0.671573 9 1.5 9C2.32843 9 3 9.67157 3 10.5C3 11.3284 2.32843 12 1.5 12ZM1.5 7.5C0.671573 7.5 0 6.82843 0 6C0 5.17157 0.671573 4.5 1.5 4.5C2.32843 4.5 3 5.17157 3 6C3 6.39782 2.84196 6.77936 2.56066 7.06066C2.27936 7.34196 1.89782 7.5 1.5 7.5ZM1.5 3C0.671573 3 0 2.32843 0 1.5C0 0.671573 0.671573 0 1.5 0C2.32843 0 3 0.671573 3 1.5C3 1.89782 2.84196 2.27936 2.56066 2.56066C2.27936 2.84196 1.89782 3 1.5 3Z" fill="#21A9FF"/>
<path d="M21 12H6V10H21V12ZM21 7H6V5H21V7ZM21 2H6V0H21V2Z" fill="#21A9FF"/>
</svg>
